{
	"asset": {
		"generator": "VISUALIZEGLTF",
		"version" : "2.0"
	},
	"extensionsUsed": [ "KHR_lights_punctual","KHR_texture_transform" ],
	"scenes": [
		{
			"name": "Default",
			"nodes": [
				0]
		}
	],
	"nodes": [
		{
			"children": [
				1, 10, 11, 12, 13, 14, 15
			]
			,"name": "Root"		}
,
		{
			"children": [
				2
			]
			,"matrix": [
				1,					0,					0,					0,
				0,					1,					0,					0,
				0,					0,					1,					0,
				0,					0.01690095,					0,					1
			]
			,"name": "HCSR04 Ultrasonic Sensor (Default)"		}
,
		{
			"children": [
				3, 4, 5, 6, 7, 8, 9
			]
			,"name": "Default"		}
,
		{
			"mesh": 0
			,"name": "brushed chromium"		}
,
		{
			"mesh": 1
			,"name": "light grey low gloss plastic"		}
,
		{
			"mesh": 2
			,"name": "color"		}
,
		{
			"mesh": 3
			,"name": "blue low gloss plastic"		}
,
		{
			"mesh": 4
			,"name": "black low gloss plastic"		}
,
		{
			"mesh": 5
			,"name": "brushed chromium-2"		}
,
		{
			"mesh": 6
			,"name": "brushed chromium-3"		}
,
		{
			"matrix": [
				0.7071067,					5.960463E-08,					-0.7071068,					0,
				-0.408204,					0.8165408,					-0.408204,					0,
				0.5773816,					0.5772877,					0.5773816,					0,
				0.1117252,					0.1253075,					0.1162252,					1
			]
			,"camera": 0
			,"name": "SOLIDWORKS Viewport"		}
,
		{
			"matrix": [
				0.7071068,					0,					-0.7071068,					0,
				-0.1622216,					0.9733286,					-0.1622216,					0,
				0.6882472,					0.2294159,					0.6882472,					0,
				4.445094,					1.981699,					4.445094,					1
			]
			,"camera": 1
			,"name": "Default Camera"		}
,
		{
			"matrix": [
				0.1873813,					0,					-0.9822873,					0,
				-0.8124308,					0.5620834,					-0.1549794,					0,
				0.5521273,					0.8270806,					0.1053239,					0,
				5.521273,					8.270805,					1.053239,					1
			]
			,"extensions" : {
				"KHR_lights_punctual" : {
					"light" : 0
				}
			}
			,"name": "Directional1"		}
,
		{
			"matrix": [
				0.9911693,					0,					-0.1326023,					0,
				-0.06378024,					0.8767266,					-0.4767414,					0,
				0.116256,					0.4809889,					0.8689846,					0,
				1.162561,					4.809888,					8.689847,					1
			]
			,"extensions" : {
				"KHR_lights_punctual" : {
					"light" : 1
				}
			}
			,"name": "Directional2"		}
,
		{
			"name": "Plain White"		}
,
		{
			"name": "Studio Soft Grey 12"		}
	],
	"cameras": [
		{
			"type": "perspective",
			"perspective" : {
				"aspectRatio": 1.294118,
				"yfov" : 0.3215369,
				"zfar" : 100,
				"znear" : 0.01
			}
		}
,
		{
			"type": "perspective",
			"perspective" : {
				"aspectRatio": 1.777778,
				"yfov" : 0.2617994,
				"zfar" : 100,
				"znear" : 0.01
			}
		}
	],
	"extensions": {
		"KHR_lights_punctual" : {
			"lights": [
		{
			"name": "Directional1[1]",
			"color": [
					0.5773503, 0.5773503, 0.5773503
				],
			"intensity": 0.5773503,
			"type": "directional"
		}
,
		{
			"name": "Directional2[1]",
			"color": [
					0.5773503, 0.5773503, 0.5773503
				],
			"intensity": 0.5773503,
			"type": "directional"
		}

			]
		}
	},
	"meshes" : [
		{
			"primitives" : [
				{
					"attributes" : {
					"POSITION" : 1
					,"NORMAL" : 2
					,"TEXCOORD_0" : 3
					},
					"indices" : 0,
					"mode": 4,
					"material" : 0
				}
			]
		},
		{
			"primitives" : [
				{
					"attributes" : {
					"POSITION" : 5
					,"NORMAL" : 6
					,"TEXCOORD_0" : 7
					},
					"indices" : 4,
					"mode": 4,
					"material" : 1
				}
			]
		},
		{
			"primitives" : [
				{
					"attributes" : {
					"POSITION" : 9
					,"NORMAL" : 10
					,"TEXCOORD_0" : 11
					},
					"indices" : 8,
					"mode": 4,
					"material" : 2
				}
			]
		},
		{
			"primitives" : [
				{
					"attributes" : {
					"POSITION" : 13
					,"NORMAL" : 14
					,"TEXCOORD_0" : 15
					},
					"indices" : 12,
					"mode": 4,
					"material" : 3
				}
			]
		},
		{
			"primitives" : [
				{
					"attributes" : {
					"POSITION" : 17
					,"NORMAL" : 18
					,"TEXCOORD_0" : 19
					},
					"indices" : 16,
					"mode": 4,
					"material" : 4
				}
			]
		},
		{
			"primitives" : [
				{
					"attributes" : {
					"POSITION" : 21
					,"NORMAL" : 22
					,"TEXCOORD_0" : 23
					},
					"indices" : 20,
					"mode": 4,
					"material" : 5
				}
			]
		},
		{
			"primitives" : [
				{
					"attributes" : {
					"POSITION" : 25
					,"NORMAL" : 26
					,"TEXCOORD_0" : 27
					},
					"indices" : 24,
					"mode": 4,
					"material" : 6
				}
			]
		}
	],
	"accessors" : [
			{
				"bufferView": 3,
				"byteOffset" : 0,
				"componentType" : 5125,
				"count" : 11784,
				"type" : "SCALAR"
			},
			{
				"bufferView": 0,
				"byteOffset" : 0,
				"componentType" : 5126,
				"count" : 5128,
				"type" : "VEC3"
								,"min": [-0.0209999997,-0.00799804181,0.00150000001]
								,"max": [0.0209999997,0.0097500002,0.0135000004]
			},
			{
				"bufferView": 1,
				"byteOffset" : 0,
				"componentType" : 5126,
				"count" : 5128,
				"type" : "VEC3"
			},
			{
				"bufferView": 2,
				"byteOffset" : 0,
				"componentType" : 5126,
				"count" : 5128,
				"type" : "VEC2"
			},
			{
				"bufferView": 7,
				"byteOffset" : 0,
				"componentType" : 5125,
				"count" : 270,
				"type" : "SCALAR"
			},
			{
				"bufferView": 4,
				"byteOffset" : 0,
				"componentType" : 5126,
				"count" : 150,
				"type" : "VEC3"
								,"min": [-0.0194841661,-0.00649604015,0.0125000002]
								,"max": [0.0195000004,0.00649604015,0.0125000002]
			},
			{
				"bufferView": 5,
				"byteOffset" : 0,
				"componentType" : 5126,
				"count" : 150,
				"type" : "VEC3"
			},
			{
				"bufferView": 6,
				"byteOffset" : 0,
				"componentType" : 5126,
				"count" : 150,
				"type" : "VEC2"
			},
			{
				"bufferView": 11,
				"byteOffset" : 0,
				"componentType" : 5125,
				"count" : 2619,
				"type" : "SCALAR"
			},
			{
				"bufferView": 8,
				"byteOffset" : 0,
				"componentType" : 5126,
				"count" : 1171,
				"type" : "VEC3"
								,"min": [-0.0181447361,-0.00893178675,0.00150000001]
								,"max": [0.0182973798,0.00489414809,0.00150000001]
			},
			{
				"bufferView": 9,
				"byteOffset" : 0,
				"componentType" : 5126,
				"count" : 1171,
				"type" : "VEC3"
			},
			{
				"bufferView": 10,
				"byteOffset" : 0,
				"componentType" : 5126,
				"count" : 1171,
				"type" : "VEC2"
			},
			{
				"bufferView": 15,
				"byteOffset" : 0,
				"componentType" : 5125,
				"count" : 10215,
				"type" : "SCALAR"
			},
			{
				"bufferView": 12,
				"byteOffset" : 0,
				"componentType" : 5126,
				"count" : 4933,
				"type" : "VEC3"
								,"min": [-0.0225000009,-0.00999999978,0]
								,"max": [0.0225000009,0.00999999978,0.00150000001]
			},
			{
				"bufferView": 13,
				"byteOffset" : 0,
				"componentType" : 5126,
				"count" : 4933,
				"type" : "VEC3"
			},
			{
				"bufferView": 14,
				"byteOffset" : 0,
				"componentType" : 5126,
				"count" : 4933,
				"type" : "VEC2"
			},
			{
				"bufferView": 19,
				"byteOffset" : 0,
				"componentType" : 5125,
				"count" : 1782,
				"type" : "SCALAR"
			},
			{
				"bufferView": 16,
				"byteOffset" : 0,
				"componentType" : 5126,
				"count" : 1000,
				"type" : "VEC3"
								,"min": [-0.0205000006,-0.00949999969,-0.00249999994]
								,"max": [0.0215000007,0.00774034159,1.91686947E-17]
			},
			{
				"bufferView": 17,
				"byteOffset" : 0,
				"componentType" : 5126,
				"count" : 1000,
				"type" : "VEC3"
			},
			{
				"bufferView": 18,
				"byteOffset" : 0,
				"componentType" : 5126,
				"count" : 1000,
				"type" : "VEC2"
			},
			{
				"bufferView": 23,
				"byteOffset" : 0,
				"componentType" : 5125,
				"count" : 17058,
				"type" : "SCALAR"
			},
			{
				"bufferView": 20,
				"byteOffset" : 0,
				"componentType" : 5126,
				"count" : 8640,
				"type" : "VEC3"
								,"min": [-0.0219000001,-0.0058366796,-0.00104999996]
								,"max": [0.0212999992,0.00774034159,4.98732999E-18]
			},
			{
				"bufferView": 21,
				"byteOffset" : 0,
				"componentType" : 5126,
				"count" : 8640,
				"type" : "VEC3"
			},
			{
				"bufferView": 22,
				"byteOffset" : 0,
				"componentType" : 5126,
				"count" : 8640,
				"type" : "VEC2"
			},
			{
				"bufferView": 27,
				"byteOffset" : 0,
				"componentType" : 5125,
				"count" : 4974,
				"type" : "SCALAR"
			},
			{
				"bufferView": 24,
				"byteOffset" : 0,
				"componentType" : 5126,
				"count" : 2542,
				"type" : "VEC3"
								,"min": [-0.0138999997,-0.016600946,-0.00449999981]
								,"max": [0.0138999997,0.00889999978,0.00270000007]
			},
			{
				"bufferView": 25,
				"byteOffset" : 0,
				"componentType" : 5126,
				"count" : 2542,
				"type" : "VEC3"
			},
			{
				"bufferView": 26,
				"byteOffset" : 0,
				"componentType" : 5126,
				"count" : 2542,
				"type" : "VEC2"
			}
	],
	"materials": [
			{
				"name": "brushed chromium",
					"normalTexture": {
						"index": 0,
						"scale": 0.3
						,"extensions": {
							"KHR_texture_transform": {
								"offset": [-16.33358,-17.33358],
								"rotation": 0,
								"scale": [33.66716, 33.66716]
							}
						}
					}
				,"emissiveFactor": [
					0, 0, 0
				]
				,"pbrMetallicRoughness": {
					"baseColorFactor": [
						1, 1, 1, 1
					]
					,"metallicFactor": 1
					,"roughnessFactor": 0.2844444
				}
				,"alphaMode": "OPAQUE"
				,"doubleSided": true
			},
			{
				"name": "light grey low gloss plastic",
				"emissiveFactor": [
					0, 0, 0
				]
				,"pbrMetallicRoughness": {
					"baseColorFactor": [
						0.2255705, 0.2255705, 0.2255705, 1
					]
					,"metallicFactor": 0
					,"roughnessFactor": 0.6440087
				}
				,"alphaMode": "OPAQUE"
				,"doubleSided": true
			},
			{
				"name": "color",
				"emissiveFactor": [
					0, 0, 0
				]
				,"pbrMetallicRoughness": {
					"baseColorFactor": [
						0.9833103, 0.9833103, 0.9833103, 1
					]
					,"metallicFactor": 0.07407367
					,"roughnessFactor": 0.01336535
				}
				,"alphaMode": "OPAQUE"
				,"doubleSided": true
			},
			{
				"name": "blue low gloss plastic",
				"emissiveFactor": [
					0, 0, 0
				]
				,"pbrMetallicRoughness": {
					"baseColorFactor": [
						2.438822E-05, 0.0449407, 0.6820194, 1
					]
					,"metallicFactor": 0
					,"roughnessFactor": 0.6440087
				}
				,"alphaMode": "OPAQUE"
				,"doubleSided": true
			},
			{
				"name": "black low gloss plastic",
				"emissiveFactor": [
					0, 0, 0
				]
				,"pbrMetallicRoughness": {
					"baseColorFactor": [
						0.006884233, 0.006884233, 0.006884233, 1
					]
					,"metallicFactor": 0
					,"roughnessFactor": 0.6440087
				}
				,"alphaMode": "OPAQUE"
				,"doubleSided": true
			},
			{
				"name": "brushed chromium-2",
					"normalTexture": {
						"index": 1,
						"scale": 0.3
						,"extensions": {
							"KHR_texture_transform": {
								"offset": [-235.3571,235.3571],
								"rotation": 0,
								"scale": [471.7143, -471.7143]
							}
						}
					}
				,"emissiveFactor": [
					0, 0, 0
				]
				,"pbrMetallicRoughness": {
					"baseColorFactor": [
						1, 1, 1, 1
					]
					,"metallicFactor": 1
					,"roughnessFactor": 0.2844444
				}
				,"alphaMode": "OPAQUE"
				,"doubleSided": true
			},
			{
				"name": "brushed chromium-3",
					"normalTexture": {
						"index": 2,
						"scale": 0.3
						,"extensions": {
							"KHR_texture_transform": {
								"offset": [-11.87013,-12.87013],
								"rotation": 0,
								"scale": [24.74026, 24.74026]
							}
						}
					}
				,"emissiveFactor": [
					0, 0, 0
				]
				,"pbrMetallicRoughness": {
					"baseColorFactor": [
						1, 1, 1, 1
					]
					,"metallicFactor": 1
					,"roughnessFactor": 0.2844444
				}
				,"alphaMode": "OPAQUE"
				,"doubleSided": true
			}
	],
	"textures": [
			{
				"sampler": 0,
				"source": 0,
				"name": "Ultrasonic Sensor_Texture_0002.png"
			},
			{
				"sampler": 1,
				"source": 1,
				"name": "Ultrasonic Sensor_Texture_0003.png"
			},
			{
				"sampler": 2,
				"source": 2,
				"name": "Ultrasonic Sensor_Texture_0004.png"
			}
	],
	"images": [
			{
				"uri": "Ultrasonic Sensor_Texture_0002.png"
			},
			{
				"uri": "Ultrasonic Sensor_Texture_0003.png"
			},
			{
				"uri": "Ultrasonic Sensor_Texture_0004.png"
			}
	],
	"samplers": [
			{
				"magFilter": 9729,
				"minFilter" : 9729,
				"wrapS" : 10497,
				"wrapT" : 10497,
				"name": "DefaultSampler"
			},
			{
				"magFilter": 9729,
				"minFilter" : 9729,
				"wrapS" : 10497,
				"wrapT" : 10497,
				"name": "DefaultSampler"
			},
			{
				"magFilter": 9729,
				"minFilter" : 9729,
				"wrapS" : 10497,
				"wrapT" : 10497,
				"name": "DefaultSampler"
			}
	],
	"bufferViews" : [
			{
				"buffer": 0
				,"byteOffset" : 0
				,"byteLength" : 61536
				,"byteStride" : 12
				,"target" : 34962
			},
			{
				"buffer": 0
				,"byteOffset" : 61536
				,"byteLength" : 61536
				,"byteStride" : 12
				,"target" : 34962
			},
			{
				"buffer": 0
				,"byteOffset" : 123072
				,"byteLength" : 41024
				,"byteStride" : 8
				,"target" : 34962
			},
			{
				"buffer": 0
				,"byteOffset" : 164096
				,"byteLength" : 47136
				,"target" : 34963
			},
			{
				"buffer": 1
				,"byteOffset" : 0
				,"byteLength" : 1800
				,"byteStride" : 12
				,"target" : 34962
			},
			{
				"buffer": 1
				,"byteOffset" : 1800
				,"byteLength" : 1800
				,"byteStride" : 12
				,"target" : 34962
			},
			{
				"buffer": 1
				,"byteOffset" : 3600
				,"byteLength" : 1200
				,"byteStride" : 8
				,"target" : 34962
			},
			{
				"buffer": 1
				,"byteOffset" : 4800
				,"byteLength" : 1080
				,"target" : 34963
			},
			{
				"buffer": 2
				,"byteOffset" : 0
				,"byteLength" : 14052
				,"byteStride" : 12
				,"target" : 34962
			},
			{
				"buffer": 2
				,"byteOffset" : 14052
				,"byteLength" : 14052
				,"byteStride" : 12
				,"target" : 34962
			},
			{
				"buffer": 2
				,"byteOffset" : 28104
				,"byteLength" : 9368
				,"byteStride" : 8
				,"target" : 34962
			},
			{
				"buffer": 2
				,"byteOffset" : 37472
				,"byteLength" : 10476
				,"target" : 34963
			},
			{
				"buffer": 3
				,"byteOffset" : 0
				,"byteLength" : 59196
				,"byteStride" : 12
				,"target" : 34962
			},
			{
				"buffer": 3
				,"byteOffset" : 59196
				,"byteLength" : 59196
				,"byteStride" : 12
				,"target" : 34962
			},
			{
				"buffer": 3
				,"byteOffset" : 118392
				,"byteLength" : 39464
				,"byteStride" : 8
				,"target" : 34962
			},
			{
				"buffer": 3
				,"byteOffset" : 157856
				,"byteLength" : 40860
				,"target" : 34963
			},
			{
				"buffer": 4
				,"byteOffset" : 0
				,"byteLength" : 12000
				,"byteStride" : 12
				,"target" : 34962
			},
			{
				"buffer": 4
				,"byteOffset" : 12000
				,"byteLength" : 12000
				,"byteStride" : 12
				,"target" : 34962
			},
			{
				"buffer": 4
				,"byteOffset" : 24000
				,"byteLength" : 8000
				,"byteStride" : 8
				,"target" : 34962
			},
			{
				"buffer": 4
				,"byteOffset" : 32000
				,"byteLength" : 7128
				,"target" : 34963
			},
			{
				"buffer": 5
				,"byteOffset" : 0
				,"byteLength" : 103680
				,"byteStride" : 12
				,"target" : 34962
			},
			{
				"buffer": 5
				,"byteOffset" : 103680
				,"byteLength" : 103680
				,"byteStride" : 12
				,"target" : 34962
			},
			{
				"buffer": 5
				,"byteOffset" : 207360
				,"byteLength" : 69120
				,"byteStride" : 8
				,"target" : 34962
			},
			{
				"buffer": 5
				,"byteOffset" : 276480
				,"byteLength" : 68232
				,"target" : 34963
			},
			{
				"buffer": 6
				,"byteOffset" : 0
				,"byteLength" : 30504
				,"byteStride" : 12
				,"target" : 34962
			},
			{
				"buffer": 6
				,"byteOffset" : 30504
				,"byteLength" : 30504
				,"byteStride" : 12
				,"target" : 34962
			},
			{
				"buffer": 6
				,"byteOffset" : 61008
				,"byteLength" : 20336
				,"byteStride" : 8
				,"target" : 34962
			},
			{
				"buffer": 6
				,"byteOffset" : 81344
				,"byteLength" : 19896
				,"target" : 34963
			}
	],
	"buffers" : [
			{
				"byteLength": 211232
				,"uri" : "Ultrasonic Sensor_0001.bin"
			},
			{
				"byteLength": 5880
				,"uri" : "Ultrasonic Sensor_0002.bin"
			},
			{
				"byteLength": 47948
				,"uri" : "Ultrasonic Sensor_0003.bin"
			},
			{
				"byteLength": 198716
				,"uri" : "Ultrasonic Sensor_0004.bin"
			},
			{
				"byteLength": 39128
				,"uri" : "Ultrasonic Sensor_0005.bin"
			},
			{
				"byteLength": 344712
				,"uri" : "Ultrasonic Sensor_0006.bin"
			},
			{
				"byteLength": 101240
				,"uri" : "Ultrasonic Sensor_0007.bin"
			}
	]
}
